<?xml version="1.0" standalone="no"?>
<!DOCTYPE svg PUBLIC "-//W3C//DTD SVG 20010904//EN"
 "http://www.w3.org/TR/2001/REC-SVG-20010904/DTD/svg10.dtd">
<svg version="1.0" xmlns="http://www.w3.org/2000/svg"
 width="512.000000pt" height="512.000000pt" viewBox="0 0 512.000000 512.000000"
 preserveAspectRatio="xMidYMid meet">

<g transform="translate(0.000000,512.000000) scale(0.100000,-0.100000)"
fill="#000000" stroke="none">
<path d="M1163 4226 c-112 -21 -177 -45 -264 -95 -385 -221 -677 -801 -828
-1641 -50 -281 -65 -442 -65 -700 0 -254 10 -359 51 -500 90 -314 309 -458
600 -395 234 50 511 225 904 570 151 133 229 182 372 236 432 164 1076 128
1425 -79 38 -23 129 -94 201 -157 502 -441 830 -614 1098 -578 235 31 380 211
439 548 25 141 25 534 1 735 -74 612 -246 1193 -450 1520 -182 290 -373 454
-612 522 -68 19 -103 23 -235 23 -179 0 -231 -9 -642 -110 -322 -78 -486 -108
-598 -108 -109 0 -262 27 -596 107 -148 35 -321 74 -384 85 -151 28 -323 35
-417 17z m472 -261 c66 -14 192 -44 279 -66 394 -99 583 -127 739 -109 148 16
243 35 517 100 405 96 448 104 600 103 119 0 145 -3 215 -26 219 -73 380 -238
535 -547 152 -303 257 -681 332 -1192 29 -201 33 -666 6 -788 -59 -273 -167
-364 -372 -316 -190 45 -432 202 -766 500 -193 171 -301 241 -473 303 -203 73
-365 102 -617 110 -276 8 -480 -18 -715 -94 -208 -67 -359 -159 -580 -358
-170 -152 -388 -311 -515 -375 -246 -124 -401 -115 -487 29 -40 67 -59 127
-79 256 -22 136 -14 539 15 742 93 663 290 1218 534 1502 107 125 254 218 392
246 104 21 291 13 440 -20z"/>
<path d="M1324 3599 c-74 -9 -155 -50 -209 -104 -49 -49 -105 -153 -105 -196
0 -27 -16 -39 -52 -39 -11 0 -48 -13 -83 -30 -160 -77 -244 -250 -201 -417 36
-142 127 -234 270 -273 59 -17 61 -18 68 -57 17 -100 107 -211 209 -257 193
-89 423 8 498 209 12 31 21 64 21 74 0 14 10 20 41 25 107 17 216 105 267 214
37 78 39 211 4 287 -58 127 -148 199 -283 229 -21 5 -28 13 -33 43 -10 62 -50
135 -102 187 -82 82 -193 120 -310 105z m123 -245 c42 -26 55 -60 63 -159 10
-134 42 -165 170 -165 83 0 122 -16 150 -63 39 -63 15 -157 -47 -187 -16 -7
-66 -15 -113 -18 -128 -7 -160 -38 -160 -157 0 -118 -46 -175 -141 -175 -85 0
-129 57 -129 165 0 129 -44 175 -168 175 -115 0 -172 44 -172 133 0 81 58 127
162 128 136 1 170 34 178 174 5 87 8 97 35 125 47 49 117 59 172 24z"/>
<path d="M3575 3552 c-156 -73 -169 -293 -23 -389 36 -24 51 -28 117 -28 66 0
82 4 118 28 24 15 55 46 70 69 24 36 28 51 28 118 0 67 -4 82 -28 118 -43 65
-97 96 -176 100 -49 2 -77 -2 -106 -16z"/>
<path d="M3145 3109 c-46 -13 -110 -73 -130 -121 -61 -150 41 -309 198 -309
95 0 165 43 203 125 40 86 28 169 -34 238 -62 69 -148 93 -237 67z"/>
<path d="M4035 3101 c-117 -54 -165 -181 -111 -296 40 -86 105 -126 201 -126
119 0 216 97 216 215 0 97 -40 162 -126 202 -60 29 -125 31 -180 5z"/>
<path d="M3600 2655 c-202 -63 -196 -362 9 -422 140 -40 280 65 281 210 0 96
-65 186 -154 212 -60 18 -77 18 -136 0z"/>
</g>
</svg>
