<?xml version="1.0" standalone="no"?>
<!DOCTYPE svg PUBLIC "-//W3C//DTD SVG 20010904//EN"
 "http://www.w3.org/TR/2001/REC-SVG-20010904/DTD/svg10.dtd">
<svg version="1.0" xmlns="http://www.w3.org/2000/svg"
 width="512.000000pt" height="512.000000pt" viewBox="0 0 512.000000 512.000000"
 preserveAspectRatio="xMidYMid meet">

<g transform="translate(0.000000,512.000000) scale(0.100000,-0.100000)"
fill="#000000" stroke="none">
<path d="M1325 4503 c-116 -42 -216 -128 -260 -226 -25 -54 -45 -153 -45 -220
0 -21 -3 -37 -7 -35 -70 36 -134 59 -182 67 -161 26 -331 -51 -422 -191 -62
-97 -69 -149 -69 -511 l0 -314 -82 -5 c-95 -5 -131 -20 -188 -79 -67 -70 -71
-94 -68 -445 3 -343 4 -350 75 -420 52 -52 89 -67 181 -72 l82 -5 0 -314 c0
-362 7 -414 69 -511 91 -140 261 -217 422 -191 48 8 112 31 182 67 4 2 7 -14
7 -35 0 -194 94 -348 257 -426 63 -30 75 -32 173 -32 137 1 195 23 286 107 71
67 117 149 134 237 6 32 10 269 10 577 l0 524 680 0 680 0 0 -524 c0 -310 4
-545 10 -576 22 -115 106 -236 204 -294 114 -67 269 -74 389 -18 164 76 257
232 257 430 l0 43 28 -19 c71 -51 185 -76 282 -62 177 25 322 161 359 338 7
32 11 175 11 367 l0 315 63 0 c117 0 206 51 252 145 19 37 20 62 20 365 0 362
0 365 -72 436 -52 52 -89 67 -180 72 l-83 5 0 313 c0 192 -4 334 -11 366 -37
177 -182 313 -359 338 -97 14 -211 -11 -282 -62 l-28 -19 0 43 c0 198 -93 355
-253 429 -125 57 -277 51 -393 -17 -98 -58 -182 -179 -204 -294 -6 -31 -10
-266 -10 -576 l0 -524 -680 0 -680 0 0 524 c0 308 -4 545 -10 577 -25 134
-137 273 -257 320 -80 31 -219 36 -288 12z m230 -177 c59 -27 117 -88 136
-142 12 -32 14 -307 14 -1624 0 -1745 4 -1627 -64 -1703 -102 -114 -281 -115
-380 -2 -72 82 -66 -65 -66 1705 0 1770 -6 1623 66 1705 72 82 195 108 294 61z
m2220 0 c55 -25 108 -79 134 -135 15 -33 16 -180 16 -1631 0 -1770 6 -1623
-66 -1705 -99 -113 -278 -112 -380 2 -68 76 -64 -42 -64 1703 0 1745 -4 1627
64 1703 76 84 196 110 296 63z m-2888 -430 c38 -19 101 -89 119 -132 21 -50
21 -2358 0 -2408 -21 -50 -85 -117 -134 -138 -139 -62 -314 23 -351 169 -15
59 -15 2288 0 2346 39 153 226 236 366 163z m3600 -12 c48 -28 97 -94 113
-154 14 -49 13 -2292 0 -2342 -42 -149 -213 -232 -352 -170 -49 21 -113 88
-134 138 -21 50 -21 2358 0 2408 18 43 81 113 119 133 73 37 178 32 254 -13z
m-4147 -1324 l0 -340 -57 0 c-111 1 -113 8 -113 340 0 332 2 339 113 340 l57
0 0 -340z m2900 0 l0 -340 -680 0 -680 0 0 340 0 340 680 0 680 0 0 -340z
m1671 327 c36 -28 39 -51 39 -327 0 -332 -2 -339 -112 -340 l-58 0 0 340 0
340 58 0 c31 0 64 -6 73 -13z"/>
</g>
</svg>
